<?xml version="1.0" encoding="UTF-8"?>
<svg width="448px" height="444px" viewBox="0 0 448 444" version="1.1" xmlns="http://www.w3.org/2000/svg" xmlns:xlink="http://www.w3.org/1999/xlink">
    <!-- Generator: Sketch 55.2 (78181) - https://sketchapp.com -->
    <title>arrow-right</title>
    <desc>Created with Sketch.</desc>
    <g id="Page-1" stroke="none" stroke-width="1" fill="none" fill-rule="evenodd">
        <g id="arrow-right" fill="#878787" fill-rule="nonzero">
            <path d="M218.101,4.101 L198.302,23.9 C193.616,28.586 193.616,36.184 198.302,40.871 L353.432,196 L12,196 C5.373,196 0,201.373 0,208 L0,236 C0,242.627 5.373,248 12,248 L353.432,248 L198.302,403.13 C193.616,407.816 193.616,415.414 198.302,420.101 L218.101,439.9 C222.787,444.586 230.385,444.586 235.072,439.9 L444.486,230.486 C449.172,225.8 449.172,218.202 444.486,213.515 L235.071,4.101 C230.385,-0.586 222.787,-0.586 218.101,4.101 Z" id="Path"></path>
        </g>
    </g>
</svg>