<?xml version="1.0" encoding="UTF-8"?>
<svg width="512px" height="504px" viewBox="0 0 512 504" version="1.1" xmlns="http://www.w3.org/2000/svg" xmlns:xlink="http://www.w3.org/1999/xlink">
    <!-- Generator: Sketch 55.2 (78181) - https://sketchapp.com -->
    <title>cube</title>
    <desc>Created with Sketch.</desc>
    <g id="Page-1" stroke="none" stroke-width="1" fill="none" fill-rule="evenodd">
        <g id="cube" fill="#878787" fill-rule="nonzero">
            <path d="M239.1,3.5 L31.1,81.5 C12.4,88.5 -7.10542736e-15,106.5 -7.10542736e-15,126.5 L-7.10542736e-15,351.6 C-7.10542736e-15,369.8 10.3,386.4 26.5,394.5 L234.5,498.5 C248,505.3 263.9,505.3 277.4,498.5 L485.4,394.5 C501.7,386.4 511.9,369.7 511.9,351.6 L511.9,126.5 C511.9,106.5 499.5,88.6 480.8,81.6 L272.8,3.6 C262,-0.6 250,-0.6 239.1,3.5 Z M256,48.5 L464,126.5 L464,126.8 L256,211.3 L48,126.8 L48,126.5 L256,48.5 Z M48,178.6 L232,253.4 L232,443.6 L48,351.6 L48,178.6 Z M280,443.5 L280,253.4 L464,178.6 L464,351.5 L280,443.5 Z" id="Shape"></path>
        </g>
    </g>
</svg>