<?xml version="1.0" encoding="UTF-8"?>
<svg width="14px" height="14px" viewBox="0 0 14 14" version="1.1" xmlns="http://www.w3.org/2000/svg" xmlns:xlink="http://www.w3.org/1999/xlink">
    <!-- Generator: Sketch 55.2 (78181) - https://sketchapp.com -->
    <title>cube - neutral</title>
    <desc>Created with Sketch.</desc>
    <g id="Icons" stroke="none" stroke-width="1" fill="none" fill-rule="evenodd">
        <g id="cube---neutral" fill="#7C7C7C" fill-rule="nonzero">
            <path d="M6.53916781,0.0852141639 L0.850556749,2.2554867 C0.339128736,2.45025475 0,2.95108687 0,3.50756701 L0,9.77075096 C0,10.2771479 0.281695644,10.7390264 0.724750928,10.9644009 L6.41336198,13.8580976 C6.78257472,14.0473008 7.21742528,14.0473008 7.58663802,13.8580976 L13.2752491,10.9644009 C13.7210393,10.7390264 14,10.2743655 14,9.77075096 L14,3.50756701 C14,2.95108687 13.6608713,2.45303715 13.1494433,2.2582691 L7.46083219,0.0879965646 C7.165462,-0.0288642643 6.8372729,-0.0288642643 6.53916781,0.0852141639 Z M7.00136745,1.81308499 L12.252393,3.81641349 L12.252393,3.84701989 L7.00136745,6.01729243 L1.75034186,3.84701989 L1.75034186,3.81641349 L7.00136745,1.81308499 Z M7.87653839,11.7184314 L7.87653839,7.57543681 L12.252393,5.76687637 L12.252393,9.49251089 L7.87653839,11.7184314 Z" id="Shape"></path>
        </g>
    </g>
</svg>