<?xml version="1.0" encoding="UTF-8"?>
<svg width="12px" height="11px" viewBox="0 0 12 11" version="1.1" xmlns="http://www.w3.org/2000/svg" xmlns:xlink="http://www.w3.org/1999/xlink">
    <!-- Generator: Sketch 55.2 (78181) - https://sketchapp.com -->
    <title>Grid - neutral</title>
    <desc>Created with Sketch.</desc>
    <g id="Icons" stroke="none" stroke-width="1" fill="none" fill-rule="evenodd">
        <g id="Grid---neutral" fill="#7C7C7C" fill-rule="nonzero">
            <path d="M6.7178125,0 L11.0753125,0 C11.3761389,0 11.62,0.244338356 11.62,0.545753425 L11.62,4.18410959 C11.62,4.48552466 11.3761389,4.72986301 11.0753125,4.72986301 L6.7178125,4.72986301 C6.41698613,4.72986301 6.173125,4.48552466 6.173125,4.18410959 L6.173125,0.545753425 C6.173125,0.244338356 6.41698613,0 6.7178125,0 Z M4.9021875,0 L0.5446875,0 C0.243861133,0 0,0.244338356 0,0.545753425 L0,4.18410959 C0,4.48552466 0.243861133,4.72986301 0.5446875,4.72986301 L4.9021875,4.72986301 C5.20301387,4.72986301 5.446875,4.48552466 5.446875,4.18410959 L5.446875,0.545753425 C5.446875,0.244338356 5.20301387,0 4.9021875,0 Z M0,6.00328767 L0,9.64164384 C0,9.9430589 0.243861133,10.1873973 0.5446875,10.1873973 L4.9021875,10.1873973 C5.20301387,10.1873973 5.446875,9.9430589 5.446875,9.64164384 L5.446875,6.00328767 C5.446875,5.7018726 5.20301387,5.45753425 4.9021875,5.45753425 L0.5446875,5.45753425 C0.243861133,5.45753425 0,5.7018726 0,6.00328767 Z M6.7178125,10.1873973 L11.0753125,10.1873973 C11.3761389,10.1873973 11.62,9.9430589 11.62,9.64164384 L11.62,6.00328767 C11.62,5.7018726 11.3761389,5.45753425 11.0753125,5.45753425 L6.7178125,5.45753425 C6.41698613,5.45753425 6.173125,5.7018726 6.173125,6.00328767 L6.173125,9.64164384 C6.173125,9.9430589 6.41698613,10.1873973 6.7178125,10.1873973 Z" id="Shape"></path>
        </g>
    </g>
</svg>