<?xml version="1.0" encoding="UTF-8"?>
<svg width="15px" height="11px" viewBox="0 0 15 11" version="1.1" xmlns="http://www.w3.org/2000/svg" xmlns:xlink="http://www.w3.org/1999/xlink">
    <!-- Generator: Sketch 55.2 (78181) - https://sketchapp.com -->
    <title>Groundtrack - neutral</title>
    <desc>Created with Sketch.</desc>
    <g id="Icons" stroke="none" stroke-width="1" fill="none" fill-rule="evenodd">
        <g id="Groundtrack---neutral" fill="#7C7C7C" fill-rule="nonzero">
            <path d="M10.776124,10.19 L7.33500879,10.19 C6.88489618,10.19 6.52000781,9.82339316 6.52000781,9.37116071 L6.52000781,1.45571429 L4.34667187,1.45571429 L4.34667187,5.00401786 C4.34667187,5.45625031 3.98178351,5.82285714 3.5316709,5.82285714 L0.362222656,5.82285714 C0.162172607,5.82285714 -1.42108547e-14,5.65992077 -1.42108547e-14,5.45892857 L-1.42108547e-14,4.73107143 C-1.42108547e-14,4.53007923 0.162172607,4.36714286 0.362222656,4.36714286 L2.89778125,4.36714286 L2.89778125,0.818839286 C2.89778125,0.366606836 3.26266962,0 3.71278223,0 L7.15389746,0 C7.60401007,0 7.96889844,0.366606836 7.96889844,0.818839286 L7.96889844,8.73428571 L10.1422344,8.73428571 L10.1422344,5.18598214 C10.1422344,4.73374969 10.5071227,4.36714286 10.9572354,4.36714286 L14.1266836,4.36714286 C14.3267336,4.36714286 14.4889062,4.53007923 14.4889062,4.73107143 L14.4889062,5.45892857 C14.4889062,5.65992077 14.3267336,5.82285714 14.1266836,5.82285714 L11.591125,5.82285714 L11.591125,9.37116071 C11.591125,9.82339316 11.2262366,10.19 10.776124,10.19 Z" id="Path"></path>
        </g>
    </g>
</svg>