<?xml version="1.0" encoding="UTF-8"?>
<svg width="23px" height="23px" viewBox="0 0 23 23" version="1.1" xmlns="http://www.w3.org/2000/svg" xmlns:xlink="http://www.w3.org/1999/xlink">
    <!-- Generator: Sketch 55.2 (78181) - https://sketchapp.com -->
    <title>Map Label Pan</title>
    <desc>Created with Sketch.</desc>
    <g id="Map-Label-Pan" stroke="none" stroke-width="1" fill="none" fill-rule="evenodd">
        <g>
            <circle id="Oval-3-Copy-5" stroke="#FFFFFF" stroke-width="2" cx="11.5" cy="11.5" r="10.5"></circle>
            <path d="M10.3496094,12.8300781 L10.3496094,16 L8.8671875,16 L8.8671875,7.46875 L12.1308594,7.46875 C13.0839891,7.46875 13.8408175,7.71679439 14.4013672,8.21289062 C14.9619169,8.70898686 15.2421875,9.36523029 15.2421875,10.1816406 C15.2421875,11.0175823 14.9677762,11.6679664 14.4189453,12.1328125 C13.8701144,12.5976586 13.1015674,12.8300781 12.1132812,12.8300781 L10.3496094,12.8300781 Z M10.3496094,11.640625 L12.1308594,11.640625 C12.6582058,11.640625 13.0605455,11.5166028 13.3378906,11.2685547 C13.6152358,11.0205066 13.7539062,10.6621117 13.7539062,10.1933594 C13.7539062,9.73241957 13.6132827,9.36425919 13.3320312,9.08886719 C13.0507798,8.81347519 12.664065,8.67187504 12.171875,8.6640625 L10.3496094,8.6640625 L10.3496094,11.640625 Z" id="P" fill="#FFFFFF" fill-rule="nonzero"></path>
        </g>
    </g>
</svg>