<?xml version="1.0" encoding="UTF-8"?>
<svg width="576px" height="448px" viewBox="0 0 576 448" version="1.1" xmlns="http://www.w3.org/2000/svg" xmlns:xlink="http://www.w3.org/1999/xlink">
    <!-- Generator: Sketch 55.2 (78181) - https://sketchapp.com -->
    <title>map</title>
    <desc>Created with Sketch.</desc>
    <g id="Page-1" stroke="none" stroke-width="1" fill="none" fill-rule="evenodd">
        <g id="map" fill="#878787" fill-rule="nonzero">
            <path d="M560.02,0 C558.06,0 556.04,0.37 554.06,1.16 L384.01,64 L384,64 L212,3.28 C205.472407,1.11027971 198.638746,0 191.76,0 C185.07,0 178.39,1.05 171.95,3.14 L20.12,55.95 C7.97067778,60.8093823 0,72.5749085 0,85.66 L0,431.98 C0,441.17 7.53,448.000024 15.99,448.000024 C17.95,448.000024 19.96,447.63 21.95,446.84 L192,384 L364,444.71 C376.989927,449.044811 391.027967,449.097388 404.05,444.86 L555.88,392.05 C568.031138,387.192873 576,375.425941 576,362.34 L576,16.02 C576,6.83 568.47,0 560.02,0 L560.02,0 Z M224,58.42 L352,103.61 L352,389.58 L224,344.39 L224,58.42 Z M48,386.05 L48,97.07 L176,52.54 L176,338.74 L175.36,338.97 L48,386.05 Z M528,350.92 L400,395.45 L400,109.26 L400.64,109.02 L528,61.95 L528,350.92 Z" id="Shape"></path>
        </g>
    </g>
</svg>