<?xml version="1.0" encoding="UTF-8"?>
<svg width="12px" height="10px" viewBox="0 0 12 10" version="1.1" xmlns="http://www.w3.org/2000/svg" xmlns:xlink="http://www.w3.org/1999/xlink">
    <!-- Generator: Sketch 55.2 (78181) - https://sketchapp.com -->
    <title>MCD - neutral</title>
    <desc>Created with Sketch.</desc>
    <g id="Icons" stroke="none" stroke-width="1" fill="none" fill-rule="evenodd">
        <g id="MCD---neutral" fill="#7C7C7C" fill-rule="nonzero">
            <path d="M11.7,8.125 L7.153875,8.125 C7.14,8.51191406 6.8780625,8.75 6.54,8.75 L5.4,8.75 C5.0495625,8.75 4.780875,8.40878906 4.7855625,8.125 L0.3,8.125 C0.135,8.125 0,8.265625 0,8.4375 L0,8.75 C0,9.4375 0.54,10 1.2,10 L10.8,10 C11.46,10 12,9.4375 12,8.75 L12,8.4375 C12,8.265625 11.865,8.125 11.7,8.125 Z M10.8,0.9375 C10.8,0.421875 10.395,0 9.9,0 L2.1,0 C1.605,0 1.2,0.421875 1.2,0.9375 L1.2,7.5 L10.8,7.5 L10.8,0.9375 Z M9.6,6.25 L2.4,6.25 L2.4,1.25 L9.6,1.25 L9.6,6.25 Z" id="Shape"></path>
        </g>
    </g>
</svg>