<?xml version="1.0" encoding="UTF-8"?>
<svg width="11px" height="10px" viewBox="0 0 11 10" version="1.1" xmlns="http://www.w3.org/2000/svg" xmlns:xlink="http://www.w3.org/1999/xlink">
    <!-- Generator: Sketch 55.2 (78181) - https://sketchapp.com -->
    <title>mosaics - neutral</title>
    <desc>Created with Sketch.</desc>
    <g id="Icons" stroke="none" stroke-width="1" fill="none" fill-rule="evenodd">
        <g id="mosaics---neutral" fill="#7C7C7C" fill-rule="nonzero">
            <path d="M9.91989931,5.63772051 C9.12700174,5.63772051 8.78361458,6.25477191 8.35281944,6.25477191 C7.20746354,6.25477191 8.25,2.81250283 8.25,2.81250283 C8.25,2.81250283 4.50144444,4.3750044 4.50144444,2.74810823 C4.50144444,2.04836143 5.19444444,1.84478701 5.19444444,1.06871201 C5.19444444,0.375312877 4.65752604,0 4.02071007,0 C3.35891493,0 2.75330382,0.368965215 2.75330382,1.10050892 C2.75330382,1.90840036 3.35889583,2.25826399 3.35889583,2.69719021 C3.35891493,4.0570158 0,3.25699546 0,3.25699546 L0,9.76553716 C0,9.76553716 3.41143229,10.5672372 3.41143229,9.20573191 C3.41143229,8.76680569 2.6475434,8.42239128 2.6475434,7.61449984 C2.6475434,6.88293661 3.20613715,6.51399092 3.8616875,6.51399092 C4.50474826,6.51399092 5.04166667,6.8893038 5.04166667,7.5826834 C5.04166667,8.3587584 4.34866667,8.56233283 4.34866667,9.26207962 C4.34866667,10.4496394 6.82509896,9.76461919 7.80965625,9.76461919 C7.80965625,9.76461919 7.14650521,7.41889418 8.30288021,7.41889418 C8.98965451,7.41889418 9.18943056,8.12498864 9.95112326,8.12498864 C10.6316528,8.12500817 11,7.5779373 11,6.9227218 C11,6.25477191 10.6378785,5.63772051 9.91989931,5.63772051 Z" id="Path"></path>
        </g>
    </g>
</svg>