<?xml version="1.0" encoding="UTF-8"?>
<svg width="5px" height="9px" viewBox="0 0 5 9" version="1.1" xmlns="http://www.w3.org/2000/svg" xmlns:xlink="http://www.w3.org/1999/xlink">
    <!-- Generator: Sketch 55.2 (78181) - https://sketchapp.com -->
    <title>nomenclature - neutral</title>
    <desc>Created with Sketch.</desc>
    <g id="Icons" stroke="none" stroke-width="1" fill="none" fill-rule="evenodd">
        <g id="nomenclature---neutral" fill="#7C7C7C" fill-rule="nonzero">
            <path d="M1.94444444,5.57131975 L1.94444444,8.32568995 L2.32673611,8.90613098 C2.40920139,9.03128967 2.59097222,9.03128967 2.6734375,8.90613098 L3.05555556,8.32568995 L3.05555556,5.57131975 C2.87517361,5.60507041 2.68993056,5.62510987 2.5,5.62510987 C2.31006944,5.62510987 2.12482639,5.60507041 1.94444444,5.57131975 Z M2.5,0 C1.11927083,0 0,1.13328385 0,2.53129944 C0,3.92931503 1.11927083,5.06259888 2.5,5.06259888 C3.88072917,5.06259888 5,3.92931503 5,2.53129944 C5,1.13328385 3.88072917,0 2.5,0 Z M2.5,1.33596359 C1.84895833,1.33596359 1.31944444,1.87210688 1.31944444,2.53129944 C1.31944444,2.6476689 1.22604167,2.74224106 1.11111111,2.74224106 C0.996180556,2.74224106 0.902777778,2.6476689 0.902777778,2.53129944 C0.902777778,1.63954374 1.61944444,0.914080353 2.5,0.914080353 C2.61493056,0.914080353 2.70833333,1.00865251 2.70833333,1.12502197 C2.70833333,1.24139143 2.61493056,1.33596359 2.5,1.33596359 Z" id="Shape"></path>
        </g>
    </g>
</svg>