<?xml version="1.0" encoding="UTF-8"?>
<svg width="9px" height="9px" viewBox="0 0 9 9" version="1.1" xmlns="http://www.w3.org/2000/svg" xmlns:xlink="http://www.w3.org/1999/xlink">
    <!-- Generator: Sketch 55.2 (78181) - https://sketchapp.com -->
    <title>north arrow  - neutral</title>
    <desc>Created with Sketch.</desc>
    <g id="Icons" stroke="none" stroke-width="1" fill="none" fill-rule="evenodd">
        <g id="north-arrow----neutral" fill="#7C7C7C" fill-rule="nonzero">
            <path d="M0,4.5 C0,2.0141129 2.0141129,0 4.5,0 C6.9858871,0 9,2.0141129 9,4.5 C9,6.9858871 6.9858871,9 4.5,9 C2.0141129,9 0,6.9858871 0,4.5 Z M2.60564516,5.02439516 L3.91935484,3.65443548 L3.91935484,6.96774194 C3.91935484,7.20907258 4.11350806,7.40322581 4.35483871,7.40322581 L4.64516129,7.40322581 C4.88649194,7.40322581 5.08064516,7.20907258 5.08064516,6.96774194 L5.08064516,3.65443548 L6.39435484,5.02439516 C6.56310484,5.20040323 6.84435484,5.20403226 7.01673387,5.03165323 L7.21451613,4.83205645 C7.38508065,4.66149194 7.38508065,4.38568548 7.21451613,4.21693548 L4.80846774,1.80907258 C4.63790323,1.63850806 4.36209677,1.63850806 4.19334677,1.80907258 L1.78366935,4.21693548 C1.61310484,4.3875 1.61310484,4.66330645 1.78366935,4.83205645 L1.98145161,5.03165323 C2.15564516,5.20403226 2.43689516,5.20040323 2.60564516,5.02439516 L2.60564516,5.02439516 Z" id="Shape"></path>
        </g>
    </g>
</svg>