<?xml version="1.0" encoding="UTF-8"?>
<svg width="12px" height="12px" viewBox="0 0 12 12" version="1.1" xmlns="http://www.w3.org/2000/svg" xmlns:xlink="http://www.w3.org/1999/xlink">
    <!-- Generator: Sketch 55.2 (78181) - https://sketchapp.com -->
    <title>region of interest - neutral</title>
    <desc>Created with Sketch.</desc>
    <g id="Icons" stroke="none" stroke-width="1" fill="none" fill-rule="evenodd">
        <g id="region-of-interest---neutral" fill="#7C7C7C" fill-rule="nonzero">
            <path d="M11.7567187,2.15882754 L6.2634375,0.0478117919 C6.09367816,-0.015937264 5.90655621,-0.015937264 5.73679687,0.0478117919 L0.24328125,2.15882754 C0.0969505704,2.21373134 0,2.3536296 0,2.50992131 L0,3.37499949 C0,3.582187 0.1678125,3.74999951 0.375,3.74999951 L11.625,3.74999951 C11.8321875,3.74999951 12,3.582187 12,3.37499949 L12,2.50992131 C12,2.35359318 11.9029687,2.2136713 11.7567187,2.15882754 Z M1.5,4.49999956 L1.5,8.24999978 L1.125,8.24999978 C0.9178125,8.24999978 0.75,8.41781229 0.75,8.6249998 L0.75,9.74999987 L11.25,9.74999987 L11.25,8.6249998 C11.25,8.41781229 11.0821875,8.24999978 10.875,8.24999978 L10.5,8.24999978 L10.5,4.49999956 L9,4.49999956 L9,8.24999978 L6.75,8.24999978 L6.75,4.49999956 L5.25,4.49999956 L5.25,8.24999978 L3,8.24999978 L3,4.49999956 L1.5,4.49999956 Z M11.625,10.4999999 L0.375,10.4999999 C0.1678125,10.4999999 0,10.6678124 0,10.8749999 L0,11.625 C0,11.8321875 0.1678125,11.9999999 0.375,11.9999999 L11.625,11.9999999 C11.8321875,11.9999999 12,11.8321875 12,11.625 L12,10.8749999 C12,10.6678124 11.8321875,10.4999999 11.625,10.4999999 Z" id="Shape"></path>
        </g>
    </g>
</svg>