<?xml version="1.0" encoding="UTF-8"?>
<svg width="16px" height="7px" viewBox="0 0 16 7" version="1.1" xmlns="http://www.w3.org/2000/svg" xmlns:xlink="http://www.w3.org/1999/xlink">
    <!-- Generator: Sketch 55.2 (78181) - https://sketchapp.com -->
    <title>Scalbar - Neutral</title>
    <desc>Created with Sketch.</desc>
    <g id="Icons" stroke="none" stroke-width="1" fill="none" fill-rule="evenodd">
        <g id="Scalbar---Neutral" fill="#7C7C7C" fill-rule="nonzero">
            <path d="M15.1111111,0 L13.7777778,0 L13.7777778,2.40625 C13.7777778,2.52710937 13.6783333,2.625 13.5555556,2.625 L13.1111111,2.625 C12.9883333,2.625 12.8888889,2.52710937 12.8888889,2.40625 L12.8888889,0 L11.1111111,0 L11.1111111,2.40625 C11.1111111,2.52710937 11.0116667,2.625 10.8888889,2.625 L10.4444444,2.625 C10.3216667,2.625 10.2222222,2.52710937 10.2222222,2.40625 L10.2222222,0 L8.44444444,0 L8.44444444,2.40625 C8.44444444,2.52710937 8.345,2.625 8.22222222,2.625 L7.77777778,2.625 C7.655,2.625 7.55555556,2.52710937 7.55555556,2.40625 L7.55555556,0 L5.77777778,0 L5.77777778,2.40625 C5.77777778,2.52710937 5.67833333,2.625 5.55555556,2.625 L5.11111111,2.625 C4.98833333,2.625 4.88888889,2.52710937 4.88888889,2.40625 L4.88888889,0 L3.11111111,0 L3.11111111,2.40625 C3.11111111,2.52710937 3.01166667,2.625 2.88888889,2.625 L2.44444444,2.625 C2.32166667,2.625 2.22222222,2.52710937 2.22222222,2.40625 L2.22222222,0 L0.888888889,0 C0.398055556,0 0,0.391835938 0,0.875 L0,6.125 C0,6.60816406 0.398055556,7 0.888888889,7 L15.1111111,7 C15.6019444,7 16,6.60816406 16,6.125 L16,0.875 C16,0.391835937 15.6019444,0 15.1111111,0 Z" id="Path"></path>
        </g>
    </g>
</svg>