<?xml version="1.0" encoding="UTF-8"?>
<svg width="512px" height="512px" viewBox="0 0 512 512" version="1.1" xmlns="http://www.w3.org/2000/svg" xmlns:xlink="http://www.w3.org/1999/xlink">
    <!-- Generator: Sketch 55.2 (78181) - https://sketchapp.com -->
    <title>shapes</title>
    <desc>Created with Sketch.</desc>
    <g id="Page-1" stroke="none" stroke-width="1" fill="none" fill-rule="evenodd">
        <g id="shapes" fill="#878787" fill-rule="nonzero">
            <path d="M512,320 L512,480 C512,497.67 497.67,512 480,512 L320,512 C302.33,512 288,497.67 288,480 L288,320 C288,302.33 302.33,288 320,288 L480,288 C497.67,288 512,302.33 512,320 Z M128,256 C57.31,256 0,313.31 0,384 C0,454.69 57.31,512 128,512 C198.69,512 256,454.69 256,384 C256,313.31 198.69,256 128,256 Z M479.03,224 C504.37,224 520.21,197.33 507.54,176 L412.51,16 C399.84,-5.33 368.16,-5.33 355.49,16 L260.46,176 C247.79,197.33 263.63,224 288.97,224 L479.03,224 L479.03,224 Z" id="Shape"></path>
        </g>
    </g>
</svg>