<?xml version="1.0" encoding="UTF-8"?>
<svg width="14px" height="14px" viewBox="0 0 14 14" version="1.1" xmlns="http://www.w3.org/2000/svg" xmlns:xlink="http://www.w3.org/1999/xlink">
    <!-- Generator: Sketch 55.2 (78181) - https://sketchapp.com -->
    <title>Shape - neutral</title>
    <desc>Created with Sketch.</desc>
    <g id="Icons" stroke="none" stroke-width="1" fill="none" fill-rule="evenodd">
        <g id="Shape---neutral" fill="#7C7C7C" fill-rule="nonzero">
            <path d="M14,8.74997437 L14,13.1249957 C14,13.6081621 13.6081641,14 13.125,14 L8.75,14 C8.26683594,14 7.875,13.6081621 7.875,13.1249957 L7.875,8.74997437 C7.875,8.26680794 8.26683594,7.87497009 8.75,7.87497009 L13.125,7.87497009 C13.6081641,7.87497009 14,8.26680794 14,8.74997437 Z M3.5,6.99996582 C1.56707031,6.99996582 0,8.56704378 0,10.4999829 C0,12.432922 1.56707031,14 3.5,14 C5.43292969,14 7,12.432922 7,10.4999829 C7,8.56704378 5.43292969,6.99996582 3.5,6.99996582 Z M13.0984766,6.12496155 C13.7913672,6.12496155 14.2244922,5.39570017 13.8780469,4.81245514 L11.2795703,0.437433777 C10.933125,-0.145811259 10.066875,-0.145811259 9.72042969,0.437433777 L7.12195313,4.81245514 C6.77550781,5.39570017 7.20863281,6.12496155 7.90152344,6.12496155 L13.0984766,6.12496155 L13.0984766,6.12496155 Z" id="Shape"></path>
        </g>
    </g>
</svg>