<?xml version="1.0" encoding="UTF-8"?>
<svg width="16px" height="12px" viewBox="0 0 16 12" version="1.1" xmlns="http://www.w3.org/2000/svg" xmlns:xlink="http://www.w3.org/1999/xlink">
    <!-- Generator: Sketch 55.2 (78181) - https://sketchapp.com -->
    <title>Stamps - Neutral</title>
    <desc>Created with Sketch.</desc>
    <g id="Icons" stroke="none" stroke-width="1" fill="none" fill-rule="evenodd">
        <g id="Stamps---Neutral" fill="#7C7C7C" fill-rule="nonzero">
            <path d="M13.3333333,10.2857143 L13.3333333,10.7142857 C13.3333333,11.424375 12.7363889,12 12,12 L1.33333333,12 C0.596944444,12 0,11.424375 0,10.7142857 L0,3.85714286 C0,3.14705357 0.596944444,2.57142857 1.33333333,2.57142857 L1.77777778,2.57142857 L1.77777778,8.14285714 C1.77777778,9.32442857 2.77466667,10.2857143 4,10.2857143 L13.3333333,10.2857143 Z M16,8.14285714 L16,1.28571429 C16,0.575625 15.4030556,0 14.6666667,0 L4,0 C3.26361111,0 2.66666667,0.575625 2.66666667,1.28571429 L2.66666667,8.14285714 C2.66666667,8.85294643 3.26361111,9.42857143 4,9.42857143 L14.6666667,9.42857143 C15.4030556,9.42857143 16,8.85294643 16,8.14285714 Z M7.11111111,2.57142857 C7.11111111,3.28151786 6.51416667,3.85714286 5.77777778,3.85714286 C5.04138889,3.85714286 4.44444444,3.28151786 4.44444444,2.57142857 C4.44444444,1.86133929 5.04138889,1.28571429 5.77777778,1.28571429 C6.51416667,1.28571429 7.11111111,1.86133929 7.11111111,2.57142857 Z M4.44444444,6.42857143 L5.98652778,4.9415625 C6.11669444,4.81604464 6.32775,4.81604464 6.45794444,4.9415625 L7.55555556,6 L11.3198611,2.37013393 C11.4500278,2.24461607 11.6610833,2.24461607 11.7912778,2.37013393 L14.2222222,4.71428571 L14.2222222,7.71428571 L4.44444444,7.71428571 L4.44444444,6.42857143 Z" id="Shape"></path>
        </g>
    </g>
</svg>