<?xml version="1.0" encoding="UTF-8"?>
<svg width="11px" height="7px" viewBox="0 0 11 7" version="1.1" xmlns="http://www.w3.org/2000/svg" xmlns:xlink="http://www.w3.org/1999/xlink">
    <!-- Generator: Sketch 55.2 (78181) - https://sketchapp.com -->
    <title>Street - Neutral</title>
    <desc>Created with Sketch.</desc>
    <g id="Icons" stroke="none" stroke-width="1" fill="none" fill-rule="evenodd">
        <g id="Street---Neutral" fill="#7C7C7C" fill-rule="nonzero">
            <path d="M10.9463453,6.17367188 L8.27676371,0.340338542 C8.1818512,0.132890625 7.97502976,0 7.74739251,0 L5.88370796,0 L5.93049582,0.4221875 C5.94004436,0.508229167 5.86919418,0.583333333 5.77848302,0.583333333 L5.22161202,0.583333333 C5.13090086,0.583333333 5.06005068,0.508229167 5.06959922,0.4221875 L5.11638708,0 L3.25270253,0 C3.02487431,0 2.81805287,0.132890625 2.72314036,0.340338542 L0.0535588193,6.17367188 C-0.123089219,6.55994792 0.158783759,7 0.583311963,7 L4.34238222,7 L4.53927316,5.219375 C4.55569666,5.07098958 4.68670266,4.95833333 4.84310779,4.95833333 L6.15698725,4.95833333 C6.31339238,4.95833333 6.44439839,5.07098958 6.46082188,5.219375 L6.65771283,7 L10.4167831,7 C10.8413113,7 11.1231843,6.55994792 10.9463453,6.17367188 Z M4.97296797,1.2971875 C4.98117865,1.22295688 5.04678367,1.16662727 5.12498077,1.16666663 L5.87530525,1.16666663 C5.95341232,1.16666663 6.0191063,1.22299479 6.02731804,1.2971875 L6.11516464,2.09161458 C6.12948745,2.22085937 6.02330766,2.33333332 5.88733641,2.33333332 L5.11314058,2.33333332 C4.97697836,2.33333332 4.87098953,2.22085937 4.88531235,2.09161458 L4.97296797,1.2971875 L4.97296797,1.2971875 Z M6.02789096,4.375 L4.97201312,4.375 C4.79059081,4.375 4.6490814,4.22497396 4.66817849,4.05270833 L4.76500071,3.17770833 C4.7814242,3.02932292 4.91243021,2.91666667 5.06883534,2.91666667 L5.93106873,2.91666667 C6.08747386,2.91666667 6.21847987,3.02932292 6.23490336,3.17770833 L6.33172558,4.05270833 C6.35082267,4.22497396 6.20931327,4.375 6.02789096,4.375 L6.02789096,4.375 Z" id="Shape"></path>
        </g>
    </g>
</svg>