<?xml version="1.0" encoding="UTF-8"?>
<svg width="19px" height="19px" viewBox="0 0 19 19" version="1.1" xmlns="http://www.w3.org/2000/svg" xmlns:xlink="http://www.w3.org/1999/xlink">
    <!-- Generator: Sketch 55.2 (78181) - https://sketchapp.com -->
    <title>Selected_search-minus copy</title>
    <desc>Created with Sketch.</desc>
    <g id="Symbols" stroke="none" stroke-width="1" fill="none" fill-rule="evenodd">
        <g id="search-minus-copy" transform="translate(0.000000, 0.500000)" fill="#8D8D8D" fill-rule="nonzero">
            <path d="M18.3725926,17.9641662 L17.9641662,18.3725926 C17.7942897,18.5424691 17.5195958,18.5424691 17.3497194,18.3725926 L12.6871521,13.7100254 C12.6040211,13.6268944 12.5606484,13.5184626 12.5606484,13.402802 L12.5606484,13.0955786 C11.2269373,14.3027859 9.45949901,15.0365077 7.51856986,15.0365077 C3.39093283,15.0365077 0.0548479101,11.7437955 0.000632012162,7.61615848 C-0.0535838858,3.38731844 3.38731844,-0.0535838858 7.61615848,0.000632012162 C11.7437955,0.0548479101 15.0365077,3.39093283 15.0365077,7.51856986 C15.0365077,9.45949901 14.3027859,11.2269373 13.0955786,12.5606484 L13.402802,12.5606484 C13.5184626,12.5606484 13.6268944,12.6076355 13.7100254,12.6871521 L18.3725926,17.3497194 C18.5424691,17.5195958 18.5424691,17.7942897 18.3725926,17.9641662 Z M11.1257343,8.08964399 C11.3642842,8.08964399 11.5594615,7.89446676 11.5594615,7.65591681 L11.5594615,7.36676535 C11.5594615,7.1282154 11.3642842,6.93303817 11.1257343,6.93303817 L3.89694788,6.93303817 C3.65839793,6.93303817 3.4632207,7.1282154 3.4632207,7.36676535 L3.4632207,7.65591681 C3.4632207,7.89446676 3.65839793,8.08964399 3.89694788,8.08964399 L11.1257343,8.08964399 Z" id="Shape"></path>
        </g>
    </g>
</svg>